<svg width="41" height="41" viewBox="0 0 41 41" fill="none" xmlns="http://www.w3.org/2000/svg">
<g clip-path="url(#clip0_7_725)">
<path d="M40.7802 20.7676C40.7802 9.72188 31.8258 0.767578 20.7802 0.767578C9.73446 0.767578 0.780151 9.72188 0.780151 20.7676C0.780151 31.8133 9.73446 40.7676 20.7802 40.7676C31.8258 40.7676 40.7802 31.8133 40.7802 20.7676Z" fill="#858446"/>
<path d="M20.7802 15.3229C21.857 16.3997 22.5903 17.7717 22.8875 19.2654C23.1845 20.759 23.0321 22.3073 22.4494 23.7143C21.8666 25.1213 20.8796 26.3238 19.6133 27.1699C18.3471 28.0159 16.8583 28.4676 15.3354 28.4676C13.8125 28.4676 12.3238 28.0159 11.0576 27.1699C9.79122 26.3238 8.80431 25.1213 8.22152 23.7143C7.63872 22.3073 7.48634 20.7591 7.78339 19.2654C8.08052 17.7717 8.81386 16.3997 9.89071 15.3229L15.3354 20.7676L20.7802 15.3229Z" fill="white"/>
<path d="M31.6696 15.3229C32.7465 16.3997 33.4798 17.7717 33.7769 19.2654C34.074 20.759 33.9216 22.3073 33.3388 23.7143C32.756 25.1213 31.769 26.3238 30.5028 27.1699C29.2365 28.0159 27.7478 28.4676 26.2249 28.4676C24.702 28.4676 23.2133 28.0159 21.947 27.1699C20.6807 26.3238 19.6938 25.1213 19.111 23.7143C18.5282 22.3073 18.3758 20.7591 18.6729 19.2654C18.97 17.7717 19.7033 16.3997 20.7802 15.3229L26.2249 20.7676L31.6696 15.3229Z" fill="white"/>
</g>
<defs>
<clipPath id="clip0_7_725">
<rect width="40" height="40" fill="white" transform="translate(0.780151 0.767578)"/>
</clipPath>
</defs>
</svg>
